<mxfile host="app.diagrams.net" agent="Mozilla/5.0 (Windows NT 10.0; Win64; x64) AppleWebKit/537.36 (KHTML, like Gecko) Chrome/129.0.0.0 Safari/537.36 Edg/129.0.0.0" version="24.7.17">
  <diagram name="Page-1" id="n2SQgNRjC3ZaueplKmgq">
    <mxGraphModel dx="1282" dy="565" grid="1" gridSize="10" guides="1" tooltips="1" connect="1" arrows="1" fold="1" page="1" pageScale="1" pageWidth="850" pageHeight="1100" math="0" shadow="0">
      <root>
        <mxCell id="0" />
        <mxCell id="1" parent="0" />
        <mxCell id="Go3wxqmRRRN3FDhB2D6H-15" value="" style="edgeStyle=orthogonalEdgeStyle;rounded=0;orthogonalLoop=1;jettySize=auto;html=1;" parent="1" source="Go3wxqmRRRN3FDhB2D6H-1" target="Go3wxqmRRRN3FDhB2D6H-14" edge="1">
          <mxGeometry relative="1" as="geometry" />
        </mxCell>
        <mxCell id="Go3wxqmRRRN3FDhB2D6H-1" value="Star" style="strokeWidth=2;html=1;shape=mxgraph.flowchart.start_1;whiteSpace=wrap;" parent="1" vertex="1">
          <mxGeometry x="330" y="40" width="150" height="80" as="geometry" />
        </mxCell>
        <mxCell id="Go3wxqmRRRN3FDhB2D6H-17" value="" style="edgeStyle=orthogonalEdgeStyle;rounded=0;orthogonalLoop=1;jettySize=auto;html=1;" parent="1" source="Go3wxqmRRRN3FDhB2D6H-14" target="Go3wxqmRRRN3FDhB2D6H-16" edge="1">
          <mxGeometry relative="1" as="geometry" />
        </mxCell>
        <mxCell id="Go3wxqmRRRN3FDhB2D6H-14" value="Display System Title" style="shape=parallelogram;perimeter=parallelogramPerimeter;whiteSpace=wrap;html=1;fixedSize=1;strokeWidth=2;" parent="1" vertex="1">
          <mxGeometry x="317.5" y="210" width="175" height="60" as="geometry" />
        </mxCell>
        <mxCell id="Go3wxqmRRRN3FDhB2D6H-19" value="" style="edgeStyle=orthogonalEdgeStyle;rounded=0;orthogonalLoop=1;jettySize=auto;html=1;" parent="1" source="Go3wxqmRRRN3FDhB2D6H-16" target="Go3wxqmRRRN3FDhB2D6H-18" edge="1">
          <mxGeometry relative="1" as="geometry" />
        </mxCell>
        <mxCell id="Go3wxqmRRRN3FDhB2D6H-21" value="" style="edgeStyle=orthogonalEdgeStyle;rounded=0;orthogonalLoop=1;jettySize=auto;html=1;" parent="1" source="Go3wxqmRRRN3FDhB2D6H-16" target="Go3wxqmRRRN3FDhB2D6H-20" edge="1">
          <mxGeometry relative="1" as="geometry" />
        </mxCell>
        <mxCell id="Go3wxqmRRRN3FDhB2D6H-16" value="Input : Penyewaan" style="rhombus;whiteSpace=wrap;html=1;strokeWidth=2;" parent="1" vertex="1">
          <mxGeometry x="338.75" y="360" width="132.5" height="130" as="geometry" />
        </mxCell>
        <mxCell id="Go3wxqmRRRN3FDhB2D6H-25" value="" style="edgeStyle=orthogonalEdgeStyle;rounded=0;orthogonalLoop=1;jettySize=auto;html=1;" parent="1" source="Go3wxqmRRRN3FDhB2D6H-18" target="Go3wxqmRRRN3FDhB2D6H-24" edge="1">
          <mxGeometry relative="1" as="geometry" />
        </mxCell>
        <mxCell id="Go3wxqmRRRN3FDhB2D6H-18" value="Repair Application&lt;div&gt;(1-4)&lt;/div&gt;" style="whiteSpace=wrap;html=1;strokeWidth=2;" parent="1" vertex="1">
          <mxGeometry x="100" y="520" width="160" height="60" as="geometry" />
        </mxCell>
        <mxCell id="Go3wxqmRRRN3FDhB2D6H-29" value="" style="edgeStyle=orthogonalEdgeStyle;rounded=0;orthogonalLoop=1;jettySize=auto;html=1;" parent="1" source="Go3wxqmRRRN3FDhB2D6H-20" target="Go3wxqmRRRN3FDhB2D6H-28" edge="1">
          <mxGeometry relative="1" as="geometry" />
        </mxCell>
        <mxCell id="Go3wxqmRRRN3FDhB2D6H-20" value="Nomor Dan Hari" style="whiteSpace=wrap;html=1;strokeWidth=2;" parent="1" vertex="1">
          <mxGeometry x="539.99" y="530" width="157.5" height="60" as="geometry" />
        </mxCell>
        <mxCell id="Go3wxqmRRRN3FDhB2D6H-33" value="" style="edgeStyle=orthogonalEdgeStyle;rounded=0;orthogonalLoop=1;jettySize=auto;html=1;" parent="1" source="Go3wxqmRRRN3FDhB2D6H-24" target="Go3wxqmRRRN3FDhB2D6H-32" edge="1">
          <mxGeometry relative="1" as="geometry" />
        </mxCell>
        <mxCell id="Go3wxqmRRRN3FDhB2D6H-24" value="Total1 dan Jenis1" style="whiteSpace=wrap;html=1;strokeWidth=2;" parent="1" vertex="1">
          <mxGeometry x="110" y="670" width="140" height="60" as="geometry" />
        </mxCell>
        <mxCell id="Go3wxqmRRRN3FDhB2D6H-26" value="Yes" style="text;html=1;align=center;verticalAlign=middle;resizable=0;points=[];autosize=1;strokeColor=none;fillColor=none;" parent="1" vertex="1">
          <mxGeometry x="180" y="388" width="40" height="30" as="geometry" />
        </mxCell>
        <mxCell id="Go3wxqmRRRN3FDhB2D6H-27" value="No" style="text;html=1;align=center;verticalAlign=middle;resizable=0;points=[];autosize=1;strokeColor=none;fillColor=none;" parent="1" vertex="1">
          <mxGeometry x="590" y="388" width="40" height="30" as="geometry" />
        </mxCell>
        <mxCell id="Go3wxqmRRRN3FDhB2D6H-31" value="" style="edgeStyle=orthogonalEdgeStyle;rounded=0;orthogonalLoop=1;jettySize=auto;html=1;" parent="1" source="Go3wxqmRRRN3FDhB2D6H-28" target="Go3wxqmRRRN3FDhB2D6H-30" edge="1">
          <mxGeometry relative="1" as="geometry" />
        </mxCell>
        <mxCell id="Go3wxqmRRRN3FDhB2D6H-28" value="Costumer Application&lt;div&gt;(1-4)&lt;/div&gt;" style="whiteSpace=wrap;html=1;strokeWidth=2;" parent="1" vertex="1">
          <mxGeometry x="552.18" y="670" width="133.13" height="55" as="geometry" />
        </mxCell>
        <mxCell id="Go3wxqmRRRN3FDhB2D6H-30" value="Total2 dan Jenis2" style="whiteSpace=wrap;html=1;strokeWidth=2;" parent="1" vertex="1">
          <mxGeometry x="558.7449999999999" y="810" width="120" height="60" as="geometry" />
        </mxCell>
        <mxCell id="Go3wxqmRRRN3FDhB2D6H-35" value="" style="edgeStyle=orthogonalEdgeStyle;rounded=0;orthogonalLoop=1;jettySize=auto;html=1;" parent="1" source="Go3wxqmRRRN3FDhB2D6H-32" target="Go3wxqmRRRN3FDhB2D6H-34" edge="1">
          <mxGeometry relative="1" as="geometry" />
        </mxCell>
        <mxCell id="Go3wxqmRRRN3FDhB2D6H-32" value="Total semua" style="whiteSpace=wrap;html=1;strokeWidth=2;" parent="1" vertex="1">
          <mxGeometry x="120" y="790" width="120" height="60" as="geometry" />
        </mxCell>
        <mxCell id="Go3wxqmRRRN3FDhB2D6H-41" style="edgeStyle=orthogonalEdgeStyle;rounded=0;orthogonalLoop=1;jettySize=auto;html=1;entryX=0.5;entryY=0;entryDx=0;entryDy=0;" parent="1" source="Go3wxqmRRRN3FDhB2D6H-34" target="Go3wxqmRRRN3FDhB2D6H-36" edge="1">
          <mxGeometry relative="1" as="geometry" />
        </mxCell>
        <mxCell id="Go3wxqmRRRN3FDhB2D6H-34" value="Jumlah_uang (payment)" style="whiteSpace=wrap;html=1;strokeWidth=2;" parent="1" vertex="1">
          <mxGeometry x="110" y="920" width="140" height="50" as="geometry" />
        </mxCell>
        <mxCell id="Go3wxqmRRRN3FDhB2D6H-36" value="Kembalian" style="whiteSpace=wrap;html=1;strokeWidth=2;" parent="1" vertex="1">
          <mxGeometry x="115" y="1040" width="130" height="50" as="geometry" />
        </mxCell>
        <mxCell id="Go3wxqmRRRN3FDhB2D6H-43" value="" style="edgeStyle=orthogonalEdgeStyle;rounded=0;orthogonalLoop=1;jettySize=auto;html=1;" parent="1" source="Go3wxqmRRRN3FDhB2D6H-38" target="Go3wxqmRRRN3FDhB2D6H-42" edge="1">
          <mxGeometry relative="1" as="geometry" />
        </mxCell>
        <mxCell id="Go3wxqmRRRN3FDhB2D6H-38" value="&#xa;Generate &lt;span class=&quot;hljs-keyword&quot;&gt;and&lt;/span&gt; Display Receipt&#xa;&#xa;" style="whiteSpace=wrap;html=1;strokeWidth=2;" parent="1" vertex="1">
          <mxGeometry x="557.49" y="940" width="140" height="55" as="geometry" />
        </mxCell>
        <mxCell id="Go3wxqmRRRN3FDhB2D6H-40" style="edgeStyle=orthogonalEdgeStyle;rounded=0;orthogonalLoop=1;jettySize=auto;html=1;exitX=0.5;exitY=1;exitDx=0;exitDy=0;entryX=0.43;entryY=0.008;entryDx=0;entryDy=0;entryPerimeter=0;" parent="1" source="Go3wxqmRRRN3FDhB2D6H-30" target="Go3wxqmRRRN3FDhB2D6H-38" edge="1">
          <mxGeometry relative="1" as="geometry" />
        </mxCell>
        <mxCell id="Go3wxqmRRRN3FDhB2D6H-42" value="Thank You" style="whiteSpace=wrap;html=1;strokeWidth=2;" parent="1" vertex="1">
          <mxGeometry x="571.24" y="1040" width="112.51" height="50" as="geometry" />
        </mxCell>
        <mxCell id="Go3wxqmRRRN3FDhB2D6H-44" value="End" style="strokeWidth=2;html=1;shape=mxgraph.flowchart.start_1;whiteSpace=wrap;" parent="1" vertex="1">
          <mxGeometry x="375" y="1190" width="100" height="60" as="geometry" />
        </mxCell>
        <mxCell id="Go3wxqmRRRN3FDhB2D6H-47" value="" style="endArrow=none;html=1;rounded=0;entryX=0.5;entryY=1;entryDx=0;entryDy=0;exitX=0;exitY=0.5;exitDx=0;exitDy=0;exitPerimeter=0;" parent="1" source="Go3wxqmRRRN3FDhB2D6H-44" target="Go3wxqmRRRN3FDhB2D6H-36" edge="1">
          <mxGeometry width="50" height="50" relative="1" as="geometry">
            <mxPoint x="175" y="1200" as="sourcePoint" />
            <mxPoint x="225" y="1150" as="targetPoint" />
            <Array as="points">
              <mxPoint x="180" y="1220" />
            </Array>
          </mxGeometry>
        </mxCell>
        <mxCell id="Go3wxqmRRRN3FDhB2D6H-48" value="" style="endArrow=none;html=1;rounded=0;entryX=0.5;entryY=1;entryDx=0;entryDy=0;" parent="1" target="Go3wxqmRRRN3FDhB2D6H-42" edge="1">
          <mxGeometry width="50" height="50" relative="1" as="geometry">
            <mxPoint x="480" y="1220" as="sourcePoint" />
            <mxPoint x="635" y="1140" as="targetPoint" />
            <Array as="points">
              <mxPoint x="630" y="1220" />
            </Array>
          </mxGeometry>
        </mxCell>
      </root>
    </mxGraphModel>
  </diagram>
</mxfile>
